HIERARCHY
ROOT SimulationBone
{
	OFFSET 0.000000 0.000000 0.000000
	CHANNELS 6 Xposition Yposition Zposition Zrotation Yrotation Xrotation 
	JOINT Hips
	{
		OFFSET 0.000000 0.000000 0.000000
		CHANNELS 6 Xposition Yposition Zposition Zrotation Yrotation Xrotation 
		JOINT RightUpLeg
		{
			OFFSET 0.103459 1.857814 10.548504
			CHANNELS 3 Zrotation Yrotation Xrotation
			JOINT RightLeg
			{
				OFFSET 43.500000 -0.000004 -0.000011
				CHANNELS 3 Zrotation Yrotation Xrotation
				JOINT RightFoot
				{
					OFFSET 42.372196 -0.000004 0.000004
					CHANNELS 3 Zrotation Yrotation Xrotation
					JOINT RightToe
					{
						OFFSET 17.300003 0.000001 -0.000008
						CHANNELS 3 Zrotation Yrotation Xrotation
						End Site
						{
							OFFSET 0.000000 0.000000 0.000000
						}
					}
				}
			}
		}
		JOINT LeftUpLeg
		{
			OFFSET 0.103457 1.857841 -10.548511
			CHANNELS 3 Zrotation Yrotation Xrotation
			JOINT LeftLeg
			{
				OFFSET 43.500042 -0.000038 0.000000
				CHANNELS 3 Zrotation Yrotation Xrotation
				JOINT LeftFoot
				{
					OFFSET 42.372269 -0.000023 0.000011
					CHANNELS 3 Zrotation Yrotation Xrotation
					JOINT LeftToe
					{
						OFFSET 17.300003 -0.000001 0.000023
						CHANNELS 3 Zrotation Yrotation Xrotation
						End Site
						{
							OFFSET 0.000000 0.000000 0.000000
						}
					}
				}
			}
		}
		JOINT Spine
		{
			OFFSET 6.901971 -2.603744 -0.000012
			CHANNELS 3 Zrotation Yrotation Xrotation
			JOINT Spine1
			{
				OFFSET 12.588097 -0.000002 0.000018
				CHANNELS 3 Zrotation Yrotation Xrotation
				JOINT Spine2
				{
					OFFSET 12.343208 0.000014 -0.000019
					CHANNELS 3 Zrotation Yrotation Xrotation
					JOINT Neck
					{
						OFFSET 25.832897 0.000008 0.000016
						CHANNELS 3 Zrotation Yrotation Xrotation
						JOINT Head
						{
							OFFSET 11.766600 -0.000006 0.000008
							CHANNELS 3 Zrotation Yrotation Xrotation
							End Site
							{
								OFFSET 0.000000 0.000000 0.000000
							}
						}
					}
					JOINT RightShoulder
					{
						OFFSET 19.745909 -1.480356 6.000120
						CHANNELS 3 Zrotation Yrotation Xrotation
						JOINT RightArm
						{
							OFFSET 11.284115 -0.000000 -0.000025
							CHANNELS 3 Zrotation Yrotation Xrotation
							JOINT RightForeArm
							{
								OFFSET 33.000057 0.000003 0.000029
								CHANNELS 3 Zrotation Yrotation Xrotation
								JOINT RightHand
								{
									OFFSET 25.200006 0.000029 0.000011
									CHANNELS 3 Zrotation Yrotation Xrotation
									End Site
									{
										OFFSET 0.000000 0.000000 0.000000
									}
								}
							}
						}
					}
					JOINT LeftShoulder
					{
						OFFSET 19.746088 -1.480379 -6.000049
						CHANNELS 3 Zrotation Yrotation Xrotation
						JOINT LeftArm
						{
							OFFSET 11.284159 -0.000019 -0.000011
							CHANNELS 3 Zrotation Yrotation Xrotation
							JOINT LeftForeArm
							{
								OFFSET 33.000076 -0.000001 0.000001
								CHANNELS 3 Zrotation Yrotation Xrotation
								JOINT LeftHand
								{
									OFFSET 25.199781 0.000139 0.000430
									CHANNELS 3 Zrotation Yrotation Xrotation
									End Site
									{
										OFFSET 0.000000 0.000000 0.000000
									}
								}
							}
						}
					}
				}
			}
		}
	}
}
MOTION
Frames: 13
Frame Time: 0.033333
79.066657 0.000000 510.661230 0.000000 13.082636 0.000000 -0.558363 91.103661 1.447649 97.451822 0.561156 178.813275 173.711668 1.536195 175.880554 -31.130971 -0.093157 1.411721 83.122815 -0.271988 3.177202 21.454558 0.003108 0.000018 165.435159 6.280504 -171.490190 -68.013466 3.573258 -4.278533 76.127950 3.344949 1.495673 21.454558 -0.003092 0.000000 11.565728 -1.071318 0.086793 13.120436 -2.145453 0.051392 12.802082 -2.145241 0.064344 7.635292 -10.803027 -3.530702 -26.975757 15.755021 -12.158308 165.424887 -74.504837 13.510668 -16.317691 52.323723 21.206122 -38.610158 -21.046647 1.842783 6.419223 -10.792441 5.792223 160.032971 84.256934 -18.526164 -15.583403 -63.566317 -27.849075 -39.499192 18.307468 -1.660240 1.476169 7.757286 -7.007371 
82.182188 0.000000 510.484210 0.000000 13.219551 0.000000 -0.861994 91.132492 0.925089 97.401549 0.048113 178.519420 175.641470 1.902207 175.742994 -30.833147 -0.424873 1.539027 83.929105 -0.384481 3.119480 21.454557 0.003109 0.000017 163.446318 6.416305 -172.600315 -62.678358 4.607322 -3.073697 78.899360 2.112334 0.331351 21.454558 -0.003093 -0.000001 11.484717 -1.093500 -0.078078 12.961550 -2.171235 -0.278359 12.643213 -2.173015 -0.265245 7.817025 -10.513008 -3.241871 -26.770995 15.356929 -11.585590 165.472698 -74.422554 13.465179 -16.408322 51.866008 21.794135 -40.399650 -21.240652 1.903689 6.049829 -10.207736 6.537266 164.989093 84.184622 -13.534205 -14.035982 -63.693659 -29.185853 -40.489156 18.418799 -1.693858 1.522973 9.270859 -5.872147 
85.277999 0.000000 510.290994 0.000000 13.286377 0.000000 -1.171302 91.074409 0.461668 97.211410 -0.408879 178.393926 177.528966 2.219300 175.879611 -30.369685 -0.820246 1.538852 84.870353 -0.389587 3.152988 21.454560 0.003109 0.000017 162.035774 6.459700 -172.937603 -55.337882 4.998065 -1.909287 79.978455 1.327022 0.512141 21.454551 -0.003092 0.000001 11.399517 -1.091195 -0.228730 12.793844 -2.150261 -0.576949 12.475527 -2.153841 -0.563957 7.894266 -10.196883 -2.989110 -26.757165 14.910079 -11.069779 165.699966 -74.321679 13.236890 -16.757389 51.310751 22.135468 -42.356004 -21.489672 1.975302 6.194854 -8.915764 6.690838 168.633081 84.045498 -9.864156 -13.055533 -63.778742 -29.902070 -41.153768 18.470501 -1.715284 1.242358 10.285506 -5.432604 
88.354855 0.000000 510.082719 0.000000 13.286082 0.000000 -1.408430 90.858871 0.041932 97.009655 -1.076301 178.191217 179.505226 2.752198 175.735358 -29.797530 -1.094056 1.604558 85.944967 -0.437096 3.228164 21.454558 0.003107 0.000018 161.226820 6.359498 -172.706565 -46.789606 4.535118 -0.642114 80.361301 0.290244 -0.143291 21.454551 -0.003092 0.000000 11.316925 -1.147497 -0.343342 12.631390 -2.250497 -0.810189 12.313070 -2.255483 -0.796588 7.739365 -9.946588 -2.736289 -26.558530 14.616839 -10.623272 165.915595 -74.277877 13.018154 -17.258068 50.901749 22.018708 -44.092563 -21.777995 2.045570 6.367995 -7.293871 5.880933 170.681004 84.066371 -7.797456 -12.639429 -64.135176 -29.864480 -41.505796 18.388934 -1.719635 1.145765 10.854404 -5.601363 
91.413523 0.000000 509.860525 0.000000 13.222223 0.000000 -1.578321 90.604187 -0.308099 96.770399 -1.741224 178.129340 -178.326049 3.234298 175.624490 -28.826865 -1.371855 1.727575 86.925639 -0.519036 3.319469 21.454558 0.003108 0.000017 161.039851 6.071595 -171.822315 -37.032603 3.503225 0.418667 79.273614 -0.464464 -0.289381 21.454553 -0.003092 0.000000 11.228287 -1.204225 -0.444035 12.456794 -2.353483 -1.015480 12.138466 -2.359706 -1.001251 7.659515 -9.670569 -2.533783 -26.444286 14.311322 -10.229251 165.773882 -74.269961 13.163371 -17.720974 50.721360 21.394943 -45.430088 -21.915994 2.095535 6.192941 -5.543513 5.064902 171.267909 83.949712 -7.208655 -12.652337 -64.343326 -30.151959 -41.193786 18.437300 -1.714215 1.462608 11.195049 -5.169170 
94.454769 0.000000 509.625549 0.000000 13.098897 0.000000 -1.655405 90.304260 -0.569021 96.353174 -2.409598 178.365330 -176.233538 3.686601 175.752638 -27.731659 -1.552131 1.876672 87.847482 -0.660691 3.190772 21.454562 0.003108 0.000017 161.222545 5.814191 -171.062197 -26.768145 2.934157 1.467771 77.247677 -1.112807 0.026468 21.454551 -0.003091 -0.000001 11.085345 -1.242348 -0.559571 12.173707 -2.418756 -1.247146 11.855387 -2.426379 -1.232519 7.564572 -9.445603 -2.408767 -26.122924 13.891859 -9.838953 165.551792 -74.264271 13.390746 -18.157491 50.735895 20.840712 -45.964062 -22.045740 2.120808 5.226401 -4.098446 4.589990 172.637006 83.855728 -5.830346 -13.305388 -64.510433 -30.419812 -40.236064 18.373175 -1.684069 1.688782 11.256723 -4.738598 
97.479357 0.000000 509.378931 0.000000 12.920674 0.000000 -1.679304 90.056572 -0.759778 95.919492 -2.903982 178.700020 -173.962405 3.950395 175.860419 -26.262262 -1.646222 2.102633 88.328075 -0.840238 3.088717 21.454560 0.003108 0.000017 161.754589 5.403397 -171.597916 -16.998131 2.890711 2.556469 74.999029 -1.661281 0.828658 21.454553 -0.003092 -0.000001 10.921931 -1.239642 -0.633616 11.848287 -2.407716 -1.391245 11.529971 -2.416212 -1.376683 7.485699 -9.255577 -2.313519 -25.554898 13.573240 -9.494229 164.991511 -74.316741 13.961562 -18.532981 50.945008 20.422377 -45.695243 -22.010819 2.110085 3.313870 -3.017260 4.330540 173.741967 83.782714 -4.716894 -14.027386 -64.628889 -30.445671 -39.111098 17.941662 -1.626268 1.894189 10.975309 -4.624936 
100.488054 0.000000 509.121808 0.000000 12.692540 0.000000 -1.565338 89.683090 -0.876349 95.715823 -3.349820 179.175140 -171.580526 4.126802 176.219687 -25.179660 -1.739859 2.233338 88.750488 -0.952077 2.990936 21.454558 0.003107 0.000018 162.217444 4.908996 -172.734077 -10.390458 2.434134 3.141851 74.225435 -1.828459 1.628468 21.454555 -0.003092 0.000001 10.792080 -1.200264 -0.705731 11.589258 -2.323640 -1.528529 11.270980 -2.332965 -1.514474 7.471617 -9.166051 -2.221764 -24.931348 13.216560 -9.137014 164.508904 -74.302718 14.455549 -18.696538 51.241073 20.410186 -45.077080 -21.887942 2.082786 1.805335 -2.588734 3.674043 173.763988 83.862497 -4.692067 -14.711184 -64.753834 -30.795349 -37.861712 17.556993 -1.569369 2.005423 10.236251 -4.345993 
103.481626 0.000000 508.855318 0.000000 12.419828 0.000000 -1.447458 89.225616 -0.940343 95.497730 -3.619418 179.604765 -169.684165 4.195496 176.923893 -25.002937 -1.705267 2.141074 89.102174 -0.954968 2.629472 21.454562 0.003107 0.000017 161.751433 4.425996 -174.745240 -9.389984 2.394143 4.152008 75.491663 -2.088675 3.267425 21.454551 -0.003092 -0.000001 10.642143 -1.116626 -0.743991 11.288456 -2.155189 -1.593710 10.970239 -2.164911 -1.580671 7.387783 -9.071754 -2.087047 -24.196630 12.694992 -8.657014 164.502005 -74.306393 14.462517 -18.711761 51.652957 20.945750 -44.103566 -21.670331 2.038749 0.545803 -3.387062 3.554846 173.381921 83.759607 -5.080903 -15.106808 -64.554884 -31.522908 -36.793136 17.238175 -1.522285 2.180948 9.523603 -4.667516 
106.460838 0.000000 508.580602 0.000000 12.108146 0.000000 -1.461424 89.051773 -0.881145 95.204757 -3.017025 -179.831869 -168.342183 3.349396 177.230213 -25.391489 -1.375646 2.247395 88.777378 -1.141465 1.982422 21.454550 0.003112 0.000017 161.645729 3.206103 -175.816637 -11.286885 2.567377 3.287966 73.069179 -2.060993 1.163785 21.454553 -0.003092 0.000000 10.482305 -0.839820 -0.738127 10.963728 -1.605796 -1.552673 10.645626 -1.615277 -1.542959 7.096613 -9.075503 -1.998435 -23.370512 12.124952 -8.227946 164.394703 -74.354532 14.570103 -18.584424 52.271752 21.809574 -42.874241 -21.420651 1.985801 -0.219288 -4.778645 4.069766 173.932939 83.711632 -4.525556 -15.776740 -64.355422 -31.886520 -35.864828 16.948122 -1.481241 2.267597 8.651017 -4.770638 
109.426456 0.000000 508.298796 0.000000 11.763314 0.000000 -1.267706 88.948593 -0.659596 95.220394 -2.067402 -178.907978 -167.581847 2.032196 177.346804 -27.509693 -0.676618 2.525812 87.701835 -1.507945 1.048080 21.454557 0.003109 0.000018 161.783522 1.684205 -176.638473 -13.918332 2.586468 2.591553 69.293171 -2.354881 -1.209742 21.454553 -0.003091 -0.000000 10.376570 -0.457167 -0.772106 10.746424 -0.840543 -1.583361 10.428416 -0.850228 -1.578265 6.795537 -9.558209 -1.913772 -22.740150 12.166738 -8.149094 164.982687 -74.402753 13.966952 -18.346120 52.958019 23.109578 -41.423823 -21.255293 1.933230 -0.186148 -5.953283 4.759140 175.895048 83.433261 -2.552161 -16.415368 -63.987350 -31.745903 -34.953275 16.546733 -1.434053 2.192813 8.568273 -5.131274 
112.379246 0.000000 508.011039 0.000000 11.391292 0.000000 -1.048721 88.866623 -0.297641 95.251254 -0.628975 -177.917445 -168.169680 0.211701 177.642838 -31.891202 0.112387 2.496515 85.777983 -1.781184 -0.351780 21.454553 0.003112 0.000017 162.163212 -0.283906 -177.977791 -16.459719 2.806765 3.557279 67.961564 -3.718377 -3.011537 21.454553 -0.003091 -0.000000 10.268971 0.052418 -0.767070 10.523977 0.174458 -1.526156 10.206005 0.165104 -1.527190 6.450465 -10.181562 -1.981642 -21.964527 11.498842 -7.936036 166.220385 -74.090470 12.713889 -18.028148 53.326757 24.093144 -39.778445 -20.692330 1.850826 0.317743 -6.689519 5.786886 177.349960 82.685116 -1.099011 -16.393185 -63.246917 -32.200490 -34.216939 16.739119 -1.429717 2.510707 8.927813 -4.693107 
115.319974 0.000000 507.718470 0.000000 10.998118 0.000000 -0.707826 88.814278 0.119794 95.627479 0.917987 -177.237222 -170.431279 -1.712708 176.472950 -39.583583 1.582369 2.737103 81.372422 -2.294235 -1.510804 21.454545 0.003112 0.000015 162.764569 -1.875104 -177.561231 -20.021313 3.628108 3.565645 70.809070 -3.954811 -3.979152 21.454553 -0.003092 0.000000 10.203999 0.592790 -0.674847 10.388725 1.243820 -1.293771 10.070625 1.235845 -1.301264 6.500500 -11.189760 -2.163868 -21.198800 10.311420 -7.648869 166.867792 -73.803227 12.062681 -17.622817 54.095867 24.519829 -37.711387 -19.936489 1.747246 1.551031 -6.904596 7.287381 178.885974 82.297496 0.446406 -16.630795 -62.691998 -31.410626 -33.303644 16.298213 -1.381080 2.725876 9.431780 -4.103257 
